<svg width="148" height="124" viewBox="0 0 148 124" fill="none" xmlns="http://www.w3.org/2000/svg">
<path d="M66.04 26.94L79.04 49.46C80.51 49.43 81.98 49.42 83.47 49.42C87.27 49.42 91.03 49.51 94.72 49.67L66.04 0L34.53 54.58C40 53.33 45.81 52.29 51.88 51.47L66.05 26.94H66.04ZM42.7 48.71L66.04 8.29001L87.41 45.31C86.09 45.29 84.78 45.28 83.46 45.28C82.78 45.28 82.1 45.28 81.41 45.28L69.62 24.86L66.03 18.64L62.44 24.86L49.29 47.64C47.07 47.96 44.86 48.31 42.7 48.7V48.71Z" fill="#FC9A00"/>
<path d="M46.71 123.96C30.46 116.82 20.52 107.26 20.52 96.7599C20.52 93.2599 21.62 89.87 23.69 86.64H116.06L99.23 57.4999C105.63 56.9699 112.26 56.6899 119.05 56.6899C128.2 56.6899 137.05 57.2 145.45 58.15C144.97 57.99 144.47 57.8399 143.97 57.6899C144.46 57.8399 144.96 57.99 145.45 58.15C146.01 58.21 146.57 58.2799 147.14 58.3499C145.66 57.9699 144.15 57.62 142.62 57.27C128.9 54.21 113.11 52.4599 96.31 52.4399C96.21 52.4399 96.11 52.4399 96.01 52.4399C92.19 52.4399 88.42 52.53 84.71 52.71C83.47 52.77 82.25 52.8399 81.03 52.9099C69.32 53.6399 58.32 55.2299 48.42 57.4999C47.56 57.6999 46.72 57.8999 45.88 58.0999C40.01 59.5399 34.56 61.2299 29.61 63.1299C11.36 70.1299 0 80 0 90.93C0 104.96 18.73 117.24 46.73 123.97L46.71 123.96ZM84.65 59.1899L92.72 73.1599H39.39C50.68 66.8599 66.39 61.9499 84.65 59.1899Z" fill="#FC9A00"/>
</svg>
