<svg width="204" height="124" viewBox="0 0 204 124" fill="none" xmlns="http://www.w3.org/2000/svg">
<path d="M66.04 26.94L79.04 49.46C80.51 49.43 81.98 49.42 83.47 49.42C87.27 49.42 91.03 49.51 94.72 49.67L66.04 0L34.53 54.58C40 53.33 45.81 52.29 51.88 51.47L66.05 26.94H66.04ZM42.7 48.71L66.04 8.29001L87.41 45.31C86.09 45.29 84.78 45.28 83.46 45.28C82.78 45.28 82.1 45.28 81.41 45.28L69.62 24.86L66.03 18.64L62.44 24.86L49.29 47.64C47.07 47.96 44.86 48.31 42.7 48.7V48.71Z" fill="#FC9A00"/>
<path d="M46.71 123.96C30.46 116.82 20.52 107.26 20.52 96.7599C20.52 93.2599 21.62 89.87 23.69 86.64H116.06L99.23 57.4999C105.63 56.9699 112.26 56.6899 119.05 56.6899C128.2 56.6899 137.05 57.2 145.45 58.15C144.97 57.99 144.47 57.8399 143.97 57.6899C144.46 57.8399 144.96 57.99 145.45 58.15C146.01 58.21 146.57 58.2799 147.14 58.3499C145.66 57.9699 144.15 57.62 142.62 57.27C128.9 54.21 113.11 52.4599 96.31 52.4399C96.21 52.4399 96.11 52.4399 96.01 52.4399C92.19 52.4399 88.42 52.53 84.71 52.71C83.47 52.77 82.25 52.8399 81.03 52.9099C69.32 53.6399 58.32 55.2299 48.42 57.4999C47.56 57.6999 46.72 57.8999 45.88 58.0999C40.01 59.5399 34.56 61.2299 29.61 63.1299C11.36 70.1299 0 80 0 90.93C0 104.96 18.73 117.24 46.73 123.97L46.71 123.96ZM84.65 59.1899L92.72 73.1599H39.39C50.68 66.8599 66.39 61.9499 84.65 59.1899Z" fill="#FC9A00"/>
<path d="M34.824 104.3L33.708 107H33.144L36.408 99.164H36.732L40.02 107H39.408L38.28 104.3H34.824ZM36.54 100.052C36.42 100.412 36.312 100.712 36.216 100.952L35.016 103.832H38.088L36.9 100.964C36.716 100.516 36.596 100.212 36.54 100.052ZM45.2122 106.592H44.8882L42.6202 101.084C42.5242 100.868 42.4282 100.616 42.3322 100.328C42.3322 100.336 42.3242 100.38 42.3082 100.46C42.3002 100.54 42.2882 100.648 42.2722 100.784C42.2562 100.912 42.2402 101.02 42.2242 101.108L41.3242 107H40.7842L42.0562 99.164H42.3802L44.8042 104.912C44.9962 105.392 45.0922 105.644 45.0922 105.668C45.1482 105.5 45.2562 105.252 45.4162 104.924L48.1162 99.164H48.4402L49.6282 107H49.0522L48.2002 101.084C48.1442 100.692 48.1162 100.432 48.1162 100.304L47.7682 101.096L45.2122 106.592ZM52.074 104.3L50.958 107H50.394L53.658 99.164H53.982L57.27 107H56.658L55.53 104.3H52.074ZM53.79 100.052C53.67 100.412 53.562 100.712 53.466 100.952L52.266 103.832H55.338L54.15 100.964C53.966 100.516 53.846 100.212 53.79 100.052ZM63.4462 99.212V99.476L58.8622 106.496H63.5062V107H58.0582V106.724L62.6422 99.692H58.3582V99.212H63.4462ZM68.8449 107.12C67.7329 107.12 66.8009 106.732 66.0489 105.956C65.2969 105.18 64.9209 104.232 64.9209 103.112C64.9209 101.984 65.2969 101.032 66.0489 100.256C66.8009 99.48 67.7329 99.092 68.8449 99.092C69.9569 99.092 70.8889 99.48 71.6409 100.256C72.3929 101.032 72.7689 101.984 72.7689 103.112C72.7689 104.232 72.3929 105.18 71.6409 105.956C70.8889 106.732 69.9569 107.12 68.8449 107.12ZM68.8449 99.584C67.8849 99.584 67.0849 99.924 66.4449 100.604C65.8129 101.284 65.4969 102.12 65.4969 103.112C65.4969 104.096 65.8129 104.928 66.4449 105.608C67.0849 106.28 67.8849 106.616 68.8449 106.616C69.8129 106.616 70.6129 106.28 71.2449 105.608C71.8769 104.928 72.1929 104.096 72.1929 103.112C72.1929 102.12 71.8769 101.284 71.2449 100.604C70.6129 99.924 69.8129 99.584 68.8449 99.584ZM75.1744 107V99.164H75.4384L80.5504 105.044C80.7344 105.252 80.9024 105.46 81.0544 105.668C81.2144 105.868 81.2984 105.972 81.3064 105.98C81.2904 105.788 81.2824 105.412 81.2824 104.852V99.212H81.8344V107.048H81.5704L76.3624 101.072L75.7024 100.268C75.7184 100.428 75.7264 100.804 75.7264 101.396V107H75.1744ZM89.0377 107V99.26C89.6377 99.196 90.2697 99.164 90.9337 99.164C91.6057 99.164 92.1737 99.344 92.6377 99.704C93.1017 100.056 93.3337 100.592 93.3337 101.312C93.3337 102.032 93.0177 102.624 92.3857 103.088C91.7537 103.544 91.0057 103.772 90.1417 103.772C90.1017 103.772 90.0577 103.772 90.0097 103.772V103.388C90.0417 103.388 90.0697 103.388 90.0937 103.388C90.8057 103.388 91.4257 103.2 91.9537 102.824C92.4817 102.448 92.7457 101.96 92.7457 101.36C92.7457 100.76 92.5577 100.324 92.1817 100.052C91.8137 99.78 91.3257 99.644 90.7177 99.644C90.3977 99.644 90.0217 99.66 89.5897 99.692V107H89.0377ZM95.3775 107V99.248C96.0655 99.192 96.6495 99.164 97.1295 99.164C97.8655 99.164 98.4735 99.356 98.9535 99.74C99.4335 100.116 99.6735 100.656 99.6735 101.36C99.6735 101.832 99.5375 102.268 99.2655 102.668C98.9935 103.068 98.6855 103.392 98.3415 103.64C99.2935 104.904 99.8815 105.66 100.105 105.908C100.562 106.38 101.058 106.648 101.594 106.712L101.582 107.084C101.134 107.076 100.77 107.012 100.49 106.892C100.21 106.764 99.9295 106.552 99.6495 106.256C99.3775 105.96 98.7735 105.164 97.8375 103.868C97.1895 103.868 96.5535 103.848 95.9295 103.808V107H95.3775ZM97.5375 103.412C97.8495 103.412 98.1855 103.204 98.5455 102.788C98.9055 102.372 99.0855 101.888 99.0855 101.336C99.0855 100.784 98.8975 100.364 98.5215 100.076C98.1455 99.788 97.6575 99.644 97.0575 99.644C96.7375 99.644 96.3615 99.66 95.9295 99.692V103.352C96.5055 103.392 97.0415 103.412 97.5375 103.412ZM102.678 107V99.212H103.23V107H102.678ZM109.724 106.592H109.4L107.132 101.084C107.036 100.868 106.94 100.616 106.844 100.328C106.844 100.336 106.836 100.38 106.82 100.46C106.812 100.54 106.8 100.648 106.784 100.784C106.768 100.912 106.752 101.02 106.736 101.108L105.836 107H105.296L106.568 99.164H106.892L109.316 104.912C109.508 105.392 109.604 105.644 109.604 105.668C109.66 105.5 109.768 105.252 109.928 104.924L112.628 99.164H112.952L114.14 107H113.564L112.712 101.084C112.656 100.692 112.628 100.432 112.628 100.304L112.28 101.096L109.724 106.592ZM116.202 107V99.212H119.838V99.692H116.754V102.524H119.538V102.992H116.754V106.496H119.958V107H116.202ZM128.471 105.104L130.715 99.368H131.063L133.019 105.14L133.307 106.112C133.331 105.96 133.431 105.64 133.607 105.152L135.599 99.212H136.175L133.463 107.048H133.139C131.803 103.216 131.111 101.224 131.063 101.072C130.991 100.856 130.919 100.644 130.847 100.436C130.807 100.572 130.699 100.856 130.523 101.288L128.255 107.048H127.931L125.195 99.212H125.807L127.787 105.056C127.899 105.376 128.003 105.732 128.099 106.124C128.139 105.964 128.263 105.624 128.471 105.104ZM137.668 104.3L136.552 107H135.988L139.252 99.164H139.576L142.864 107H142.252L141.124 104.3H137.668ZM139.384 100.052C139.264 100.412 139.156 100.712 139.06 100.952L137.86 103.832H140.932L139.744 100.964C139.56 100.516 139.44 100.212 139.384 100.052ZM145.098 99.704H142.458V99.212H148.278V99.704H145.638V107H145.098V99.704ZM155.695 106.616C155.095 106.952 154.259 107.12 153.187 107.12C152.123 107.12 151.183 106.736 150.367 105.968C149.559 105.2 149.155 104.248 149.155 103.112C149.155 101.968 149.507 101.012 150.211 100.244C150.923 99.476 151.839 99.092 152.959 99.092C153.863 99.092 154.747 99.232 155.611 99.512L155.467 99.968C154.635 99.712 153.775 99.584 152.887 99.584C151.999 99.584 151.251 99.924 150.643 100.604C150.043 101.276 149.743 102.104 149.743 103.088C149.743 104.064 150.091 104.896 150.787 105.584C151.491 106.272 152.303 106.616 153.223 106.616C154.143 106.616 154.907 106.488 155.515 106.232L155.695 106.616ZM163.627 107V103.064H158.215V107H157.663V99.212H158.215V102.572H163.627V99.212H164.179V107H163.627ZM171.385 107V99.26C171.985 99.196 172.617 99.164 173.281 99.164C173.953 99.164 174.521 99.344 174.985 99.704C175.449 100.056 175.681 100.592 175.681 101.312C175.681 102.032 175.365 102.624 174.733 103.088C174.101 103.544 173.353 103.772 172.489 103.772C172.449 103.772 172.405 103.772 172.357 103.772V103.388C172.389 103.388 172.417 103.388 172.441 103.388C173.153 103.388 173.773 103.2 174.301 102.824C174.829 102.448 175.093 101.96 175.093 101.36C175.093 100.76 174.905 100.324 174.529 100.052C174.161 99.78 173.673 99.644 173.065 99.644C172.745 99.644 172.369 99.66 171.937 99.692V107H171.385ZM177.629 104.3L176.513 107H175.949L179.213 99.164H179.537L182.825 107H182.213L181.085 104.3H177.629ZM179.345 100.052C179.225 100.412 179.117 100.712 179.021 100.952L177.821 103.832H180.893L179.705 100.964C179.521 100.516 179.401 100.212 179.345 100.052ZM184.405 107V99.248C185.093 99.192 185.677 99.164 186.157 99.164C186.893 99.164 187.501 99.356 187.981 99.74C188.461 100.116 188.701 100.656 188.701 101.36C188.701 101.832 188.565 102.268 188.293 102.668C188.021 103.068 187.713 103.392 187.369 103.64C188.321 104.904 188.909 105.66 189.133 105.908C189.589 106.38 190.085 106.648 190.621 106.712L190.609 107.084C190.161 107.076 189.797 107.012 189.517 106.892C189.237 106.764 188.957 106.552 188.677 106.256C188.405 105.96 187.801 105.164 186.865 103.868C186.217 103.868 185.581 103.848 184.957 103.808V107H184.405ZM186.565 103.412C186.877 103.412 187.213 103.204 187.573 102.788C187.933 102.372 188.113 101.888 188.113 101.336C188.113 100.784 187.925 100.364 187.549 100.076C187.173 99.788 186.685 99.644 186.085 99.644C185.765 99.644 185.389 99.66 184.957 99.692V103.352C185.533 103.392 186.069 103.412 186.565 103.412ZM192.535 99.704H189.895V99.212H195.715V99.704H193.075V107H192.535V99.704ZM199.526 107H198.986V104.216L196.046 99.212H196.706L198.974 103.076C199.15 103.428 199.25 103.616 199.274 103.64C199.322 103.536 199.422 103.352 199.574 103.088L201.842 99.212H202.466L199.526 104.24V107Z" fill="white"/>
</svg>
