<svg width="111" height="111" viewBox="0 0 111 111" fill="none" xmlns="http://www.w3.org/2000/svg">
<path d="M39.5927 103L39.5924 73.5364M39.5924 73.5364L41.263 34.4951C41.3746 31.8871 43.0356 29.5988 45.4807 28.6846L47.7309 27.8434C50.2858 26.8881 53.1654 27.6297 54.9412 29.7002L75.4257 53.5851C78.5038 57.1741 76.8419 62.7441 72.3006 64.0599L39.5924 73.5364Z" stroke="#00A8E1" stroke-width="10.5" stroke-linecap="round"/>
<path d="M81.286 68.4262L102.027 81.2092C102.155 81.2881 102.323 81.237 102.386 81.1003L106.912 71.1921C106.963 71.0812 106.926 70.9499 106.825 70.8814L84.923 56.0142C84.7198 55.8762 84.4504 56.088 84.5237 56.3224C85.8971 60.7105 84.3513 65.1083 81.248 68.0234C81.126 68.138 81.1435 68.3384 81.286 68.4262Z" fill="#00A8E1"/>
<circle cx="55.5" cy="55.5" r="49.25" stroke="#13124F" stroke-width="12.5"/>
<circle cx="55.5" cy="55.5" r="49.25" stroke="url(#paint0_linear_29_402)" stroke-opacity="0.2" stroke-width="12.5"/>
<defs>
<linearGradient id="paint0_linear_29_402" x1="55.5" y1="0" x2="55.5" y2="111" gradientUnits="userSpaceOnUse">
<stop offset="0.484375" stop-color="#00A8E1"/>
<stop offset="1" stop-opacity="0"/>
</linearGradient>
</defs>
</svg>
